<?xml version="1.0" encoding="UTF-8" standalone="no"?>
<!DOCTYPE svg PUBLIC "-//W3C//DTD SVG 1.1//EN"
 "http://www.w3.org/Graphics/SVG/1.1/DTD/svg11.dtd">
<!-- Generated by graphviz version 2.30.0 (20130412.1044)
 -->
<!-- Title: controllers_diagram Pages: 1 -->
<svg width="774pt" height="592pt"
 viewBox="0.00 0.00 774.00 592.00" xmlns="http://www.w3.org/2000/svg" xmlns:xlink="http://www.w3.org/1999/xlink">
<g id="graph0" class="graph" transform="scale(1 1) rotate(0) translate(4 588)">
<title>controllers_diagram</title>
<polygon fill="white" stroke="white" points="-4,5 -4,-588 771,-588 771,5 -4,5"/>
<!-- _diagram_info -->
<g id="node1" class="node"><title>_diagram_info</title>
<text text-anchor="start" x="560" y="-569.6" font-family="Times,serif" font-size="13.00">Controllers diagram</text>
<text text-anchor="start" x="560" y="-555.6" font-family="Times,serif" font-size="13.00">Date: Apr 15 2013 &#45; 13:19</text>
<text text-anchor="start" x="560" y="-541.6" font-family="Times,serif" font-size="13.00">Migration version: 20130414105154</text>
<text text-anchor="start" x="560" y="-527.6" font-family="Times,serif" font-size="13.00">Generated by RailRoady 1.1.0</text>
<text text-anchor="start" x="560" y="-513.6" font-family="Times,serif" font-size="13.00">http://railroady.prestonlee.com</text>
</g>
<!-- CommentController -->
<g id="node2" class="node"><title>CommentController</title>
<path fill="none" stroke="black" d="M12.9214,-177.852C12.9214,-177.852 115.921,-177.852 115.921,-177.852 121.921,-177.852 127.921,-183.852 127.921,-189.852 127.921,-189.852 127.921,-273.852 127.921,-273.852 127.921,-279.852 121.921,-285.852 115.921,-285.852 115.921,-285.852 12.9214,-285.852 12.9214,-285.852 6.92143,-285.852 0.921432,-279.852 0.921432,-273.852 0.921432,-273.852 0.921432,-189.852 0.921432,-189.852 0.921432,-183.852 6.92143,-177.852 12.9214,-177.852"/>
<text text-anchor="middle" x="64.4214" y="-270.652" font-family="Times,serif" font-size="14.00">CommentController</text>
<polyline fill="none" stroke="black" points="0.921432,-262.852 127.921,-262.852 "/>
<text text-anchor="start" x="8.92143" y="-247.652" font-family="Times,serif" font-size="14.00">create</text>
<text text-anchor="start" x="8.92143" y="-232.652" font-family="Times,serif" font-size="14.00">new</text>
<polyline fill="none" stroke="black" points="0.921432,-224.852 127.921,-224.852 "/>
<polyline fill="none" stroke="black" points="0.921432,-200.852 127.921,-200.852 "/>
<text text-anchor="start" x="8.92143" y="-185.652" font-family="Times,serif" font-size="14.00">_layout</text>
</g>
<!-- ApplicationController -->
<g id="node3" class="node"><title>ApplicationController</title>
<path fill="none" stroke="black" d="M194.967,-203.926C194.967,-203.926 374.967,-203.926 374.967,-203.926 380.967,-203.926 386.967,-209.926 386.967,-215.926 386.967,-215.926 386.967,-284.926 386.967,-284.926 386.967,-290.926 380.967,-296.926 374.967,-296.926 374.967,-296.926 194.967,-296.926 194.967,-296.926 188.967,-296.926 182.967,-290.926 182.967,-284.926 182.967,-284.926 182.967,-215.926 182.967,-215.926 182.967,-209.926 188.967,-203.926 194.967,-203.926"/>
<text text-anchor="middle" x="284.967" y="-281.726" font-family="Times,serif" font-size="14.00">ApplicationController</text>
<polyline fill="none" stroke="black" points="182.967,-273.926 386.967,-273.926 "/>
<text text-anchor="start" x="190.967" y="-258.726" font-family="Times,serif" font-size="14.00">_one_time_conditions_valid_100?</text>
<polyline fill="none" stroke="black" points="182.967,-250.926 386.967,-250.926 "/>
<polyline fill="none" stroke="black" points="182.967,-226.926 386.967,-226.926 "/>
<text text-anchor="start" x="190.967" y="-211.726" font-family="Times,serif" font-size="14.00">_layout</text>
</g>
<!-- ApplicationController&#45;&gt;CommentController -->
<g id="edge1" class="edge"><title>ApplicationController&#45;&gt;CommentController</title>
<path fill="none" stroke="black" d="M182.764,-241.819C164.172,-240.253 145.273,-238.661 128.195,-237.223"/>
</g>
<!-- CalendarController -->
<g id="node4" class="node"><title>CalendarController</title>
<path fill="none" stroke="black" d="M403.543,-18.1686C403.543,-18.1686 500.543,-18.1686 500.543,-18.1686 506.543,-18.1686 512.543,-24.1686 512.543,-30.1686 512.543,-30.1686 512.543,-174.169 512.543,-174.169 512.543,-180.169 506.543,-186.169 500.543,-186.169 500.543,-186.169 403.543,-186.169 403.543,-186.169 397.543,-186.169 391.543,-180.169 391.543,-174.169 391.543,-174.169 391.543,-30.1686 391.543,-30.1686 391.543,-24.1686 397.543,-18.1686 403.543,-18.1686"/>
<text text-anchor="middle" x="452.043" y="-170.969" font-family="Times,serif" font-size="14.00">CalendarController</text>
<polyline fill="none" stroke="black" points="391.543,-163.169 512.543,-163.169 "/>
<text text-anchor="start" x="399.543" y="-147.969" font-family="Times,serif" font-size="14.00">create</text>
<text text-anchor="start" x="399.543" y="-132.969" font-family="Times,serif" font-size="14.00">destroy</text>
<text text-anchor="start" x="399.543" y="-117.969" font-family="Times,serif" font-size="14.00">edit</text>
<text text-anchor="start" x="399.543" y="-102.969" font-family="Times,serif" font-size="14.00">index</text>
<text text-anchor="start" x="399.543" y="-87.9686" font-family="Times,serif" font-size="14.00">new</text>
<text text-anchor="start" x="399.543" y="-72.9686" font-family="Times,serif" font-size="14.00">update</text>
<polyline fill="none" stroke="black" points="391.543,-65.1686 512.543,-65.1686 "/>
<polyline fill="none" stroke="black" points="391.543,-41.1686 512.543,-41.1686 "/>
<text text-anchor="start" x="399.543" y="-25.9686" font-family="Times,serif" font-size="14.00">_layout</text>
</g>
<!-- ApplicationController&#45;&gt;CalendarController -->
<g id="edge2" class="edge"><title>ApplicationController&#45;&gt;CalendarController</title>
<path fill="none" stroke="black" d="M337.372,-203.924C354.502,-188.723 373.671,-171.714 391.358,-156.018"/>
</g>
<!-- TodoController -->
<g id="node5" class="node"><title>TodoController</title>
<path fill="none" stroke="black" d="M298.086,-374.611C298.086,-374.611 375.086,-374.611 375.086,-374.611 381.086,-374.611 387.086,-380.611 387.086,-386.611 387.086,-386.611 387.086,-515.611 387.086,-515.611 387.086,-521.611 381.086,-527.611 375.086,-527.611 375.086,-527.611 298.086,-527.611 298.086,-527.611 292.086,-527.611 286.086,-521.611 286.086,-515.611 286.086,-515.611 286.086,-386.611 286.086,-386.611 286.086,-380.611 292.086,-374.611 298.086,-374.611"/>
<text text-anchor="middle" x="336.586" y="-512.411" font-family="Times,serif" font-size="14.00">TodoController</text>
<polyline fill="none" stroke="black" points="286.086,-504.611 387.086,-504.611 "/>
<text text-anchor="start" x="294.086" y="-489.411" font-family="Times,serif" font-size="14.00">create</text>
<text text-anchor="start" x="294.086" y="-474.411" font-family="Times,serif" font-size="14.00">destroy</text>
<text text-anchor="start" x="294.086" y="-459.411" font-family="Times,serif" font-size="14.00">index</text>
<text text-anchor="start" x="294.086" y="-444.411" font-family="Times,serif" font-size="14.00">new</text>
<text text-anchor="start" x="294.086" y="-429.411" font-family="Times,serif" font-size="14.00">update</text>
<polyline fill="none" stroke="black" points="286.086,-421.611 387.086,-421.611 "/>
<polyline fill="none" stroke="black" points="286.086,-397.611 387.086,-397.611 "/>
<text text-anchor="start" x="294.086" y="-382.411" font-family="Times,serif" font-size="14.00">_layout</text>
</g>
<!-- ApplicationController&#45;&gt;TodoController -->
<g id="edge3" class="edge"><title>ApplicationController&#45;&gt;TodoController</title>
<path fill="none" stroke="black" d="M296.939,-296.972C302.866,-320.014 310.174,-348.429 316.896,-374.561"/>
</g>
<!-- FeedController -->
<g id="node6" class="node"><title>FeedController</title>
<path fill="none" stroke="black" d="M411.339,-305.087C411.339,-305.087 591.339,-305.087 591.339,-305.087 597.339,-305.087 603.339,-311.087 603.339,-317.087 603.339,-317.087 603.339,-416.087 603.339,-416.087 603.339,-422.087 597.339,-428.087 591.339,-428.087 591.339,-428.087 411.339,-428.087 411.339,-428.087 405.339,-428.087 399.339,-422.087 399.339,-416.087 399.339,-416.087 399.339,-317.087 399.339,-317.087 399.339,-311.087 405.339,-305.087 411.339,-305.087"/>
<text text-anchor="middle" x="501.339" y="-412.887" font-family="Times,serif" font-size="14.00">FeedController</text>
<polyline fill="none" stroke="black" points="399.339,-405.087 603.339,-405.087 "/>
<text text-anchor="start" x="407.339" y="-389.887" font-family="Times,serif" font-size="14.00">_one_time_conditions_valid_140?</text>
<text text-anchor="start" x="407.339" y="-374.887" font-family="Times,serif" font-size="14.00">create</text>
<text text-anchor="start" x="407.339" y="-359.887" font-family="Times,serif" font-size="14.00">index</text>
<polyline fill="none" stroke="black" points="399.339,-352.087 603.339,-352.087 "/>
<polyline fill="none" stroke="black" points="399.339,-328.087 603.339,-328.087 "/>
<text text-anchor="start" x="407.339" y="-312.887" font-family="Times,serif" font-size="14.00">_layout</text>
</g>
<!-- ApplicationController&#45;&gt;FeedController -->
<g id="edge4" class="edge"><title>ApplicationController&#45;&gt;FeedController</title>
<path fill="none" stroke="black" d="M371.727,-297.004C380.78,-301.864 390.041,-306.836 399.244,-311.777"/>
</g>
<!-- AdminController -->
<g id="node7" class="node"><title>AdminController</title>
<path fill="none" stroke="black" d="M12,-357.888C12,-357.888 192,-357.888 192,-357.888 198,-357.888 204,-363.888 204,-369.888 204,-369.888 204,-498.888 204,-498.888 204,-504.888 198,-510.888 192,-510.888 192,-510.888 12,-510.888 12,-510.888 6,-510.888 0,-504.888 0,-498.888 0,-498.888 0,-369.888 0,-369.888 0,-363.888 6,-357.888 12,-357.888"/>
<text text-anchor="middle" x="102" y="-495.688" font-family="Times,serif" font-size="14.00">AdminController</text>
<polyline fill="none" stroke="black" points="0,-487.888 204,-487.888 "/>
<text text-anchor="start" x="8" y="-472.688" font-family="Times,serif" font-size="14.00">_one_time_conditions_valid_142?</text>
<text text-anchor="start" x="8" y="-457.688" font-family="Times,serif" font-size="14.00">create</text>
<text text-anchor="start" x="8" y="-442.688" font-family="Times,serif" font-size="14.00">destroy</text>
<text text-anchor="start" x="8" y="-427.688" font-family="Times,serif" font-size="14.00">index</text>
<text text-anchor="start" x="8" y="-412.688" font-family="Times,serif" font-size="14.00">show</text>
<polyline fill="none" stroke="black" points="0,-404.888 204,-404.888 "/>
<polyline fill="none" stroke="black" points="0,-380.888 204,-380.888 "/>
<text text-anchor="start" x="8" y="-365.688" font-family="Times,serif" font-size="14.00">_layout</text>
</g>
<!-- ApplicationController&#45;&gt;AdminController -->
<g id="edge5" class="edge"><title>ApplicationController&#45;&gt;AdminController</title>
<path fill="none" stroke="black" d="M238.323,-297.324C220.112,-315.633 198.752,-337.109 178.414,-357.558"/>
</g>
<!-- MapController -->
<g id="node8" class="node"><title>MapController</title>
<path fill="none" stroke="black" d="M111.283,-0.5C111.283,-0.5 185.283,-0.5 185.283,-0.5 191.283,-0.5 197.283,-6.5 197.283,-12.5 197.283,-12.5 197.283,-126.5 197.283,-126.5 197.283,-132.5 191.283,-138.5 185.283,-138.5 185.283,-138.5 111.283,-138.5 111.283,-138.5 105.283,-138.5 99.283,-132.5 99.283,-126.5 99.283,-126.5 99.283,-12.5 99.283,-12.5 99.283,-6.5 105.283,-0.5 111.283,-0.5"/>
<text text-anchor="middle" x="148.283" y="-123.3" font-family="Times,serif" font-size="14.00">MapController</text>
<polyline fill="none" stroke="black" points="99.283,-115.5 197.283,-115.5 "/>
<text text-anchor="start" x="107.283" y="-100.3" font-family="Times,serif" font-size="14.00">create</text>
<text text-anchor="start" x="107.283" y="-85.3" font-family="Times,serif" font-size="14.00">destroy</text>
<text text-anchor="start" x="107.283" y="-70.3" font-family="Times,serif" font-size="14.00">index</text>
<text text-anchor="start" x="107.283" y="-55.3" font-family="Times,serif" font-size="14.00">show</text>
<polyline fill="none" stroke="black" points="99.283,-47.5 197.283,-47.5 "/>
<polyline fill="none" stroke="black" points="99.283,-23.5 197.283,-23.5 "/>
<text text-anchor="start" x="107.283" y="-8.3" font-family="Times,serif" font-size="14.00">_layout</text>
</g>
<!-- ApplicationController&#45;&gt;MapController -->
<g id="edge6" class="edge"><title>ApplicationController&#45;&gt;MapController</title>
<path fill="none" stroke="black" d="M249.767,-203.833C233.868,-182.788 214.812,-157.564 197.528,-134.685"/>
</g>
</g>
</svg>
