<?xml version="1.0" encoding="UTF-8" standalone="no"?>
<!DOCTYPE svg PUBLIC "-//W3C//DTD SVG 1.1//EN"
 "http://www.w3.org/Graphics/SVG/1.1/DTD/svg11.dtd">
<!-- Generated by graphviz version 2.30.0 (20130412.1044)
 -->
<!-- Title: controllers_diagram Pages: 1 -->
<svg width="574pt" height="341pt"
 viewBox="0.00 0.00 574.00 340.62" xmlns="http://www.w3.org/2000/svg" xmlns:xlink="http://www.w3.org/1999/xlink">
<g id="graph0" class="graph" transform="scale(1 1) rotate(0) translate(4 336.62)">
<title>controllers_diagram</title>
<polygon fill="white" stroke="white" points="-4,5 -4,-336.62 571,-336.62 571,5 -4,5"/>
<!-- _diagram_info -->
<g id="node1" class="node"><title>_diagram_info</title>
<text text-anchor="start" x="360" y="-95.6" font-family="Times,serif" font-size="13.00">Controllers diagram</text>
<text text-anchor="start" x="360" y="-81.6" font-family="Times,serif" font-size="13.00">Date: Apr 12 2013 &#45; 13:59</text>
<text text-anchor="start" x="360" y="-67.6" font-family="Times,serif" font-size="13.00">Migration version: 20130412104040</text>
<text text-anchor="start" x="360" y="-53.6" font-family="Times,serif" font-size="13.00">Generated by RailRoady 1.1.0</text>
<text text-anchor="start" x="360" y="-39.6" font-family="Times,serif" font-size="13.00">http://railroady.prestonlee.com</text>
</g>
<!-- ApplicationController -->
<g id="node2" class="node"><title>ApplicationController</title>
<path fill="none" stroke="black" d="M12,-222.115C12,-222.115 185,-222.115 185,-222.115 191,-222.115 197,-228.115 197,-234.115 197,-234.115 197,-303.115 197,-303.115 197,-309.115 191,-315.115 185,-315.115 185,-315.115 12,-315.115 12,-315.115 6,-315.115 -1.42109e-14,-309.115 -1.42109e-14,-303.115 -1.42109e-14,-303.115 -1.42109e-14,-234.115 -1.42109e-14,-234.115 -1.42109e-14,-228.115 6,-222.115 12,-222.115"/>
<text text-anchor="middle" x="98.5" y="-299.915" font-family="Times,serif" font-size="14.00">ApplicationController</text>
<polyline fill="none" stroke="black" points="-1.42109e-14,-292.115 197,-292.115 "/>
<text text-anchor="start" x="8" y="-276.915" font-family="Times,serif" font-size="14.00">_one_time_conditions_valid_88?</text>
<polyline fill="none" stroke="black" points="-1.42109e-14,-269.115 197,-269.115 "/>
<polyline fill="none" stroke="black" points="-1.42109e-14,-245.115 197,-245.115 "/>
<text text-anchor="start" x="8" y="-229.915" font-family="Times,serif" font-size="14.00">_layout</text>
</g>
<!-- FeedController -->
<g id="node3" class="node"><title>FeedController</title>
<path fill="none" stroke="black" d="M225.744,-209.12C225.744,-209.12 398.744,-209.12 398.744,-209.12 404.744,-209.12 410.744,-215.12 410.744,-221.12 410.744,-221.12 410.744,-320.12 410.744,-320.12 410.744,-326.12 404.744,-332.12 398.744,-332.12 398.744,-332.12 225.744,-332.12 225.744,-332.12 219.744,-332.12 213.744,-326.12 213.744,-320.12 213.744,-320.12 213.744,-221.12 213.744,-221.12 213.744,-215.12 219.744,-209.12 225.744,-209.12"/>
<text text-anchor="middle" x="312.244" y="-316.92" font-family="Times,serif" font-size="14.00">FeedController</text>
<polyline fill="none" stroke="black" points="213.744,-309.12 410.744,-309.12 "/>
<text text-anchor="start" x="221.744" y="-293.92" font-family="Times,serif" font-size="14.00">_one_time_conditions_valid_90?</text>
<text text-anchor="start" x="221.744" y="-278.92" font-family="Times,serif" font-size="14.00">create</text>
<text text-anchor="start" x="221.744" y="-263.92" font-family="Times,serif" font-size="14.00">index</text>
<polyline fill="none" stroke="black" points="213.744,-256.12 410.744,-256.12 "/>
<polyline fill="none" stroke="black" points="213.744,-232.12 410.744,-232.12 "/>
<text text-anchor="start" x="221.744" y="-216.92" font-family="Times,serif" font-size="14.00">_layout</text>
</g>
<!-- ApplicationController&#45;&gt;FeedController -->
<g id="edge1" class="edge"><title>ApplicationController&#45;&gt;FeedController</title>
<path fill="none" stroke="black" d="M197.238,-269.541C202.707,-269.592 208.205,-269.644 213.674,-269.695"/>
</g>
<!-- AdminController -->
<g id="node4" class="node"><title>AdminController</title>
<path fill="none" stroke="black" d="M120.494,-0.5C120.494,-0.5 293.494,-0.5 293.494,-0.5 299.494,-0.5 305.494,-6.5 305.494,-12.5 305.494,-12.5 305.494,-141.5 305.494,-141.5 305.494,-147.5 299.494,-153.5 293.494,-153.5 293.494,-153.5 120.494,-153.5 120.494,-153.5 114.494,-153.5 108.494,-147.5 108.494,-141.5 108.494,-141.5 108.494,-12.5 108.494,-12.5 108.494,-6.5 114.494,-0.5 120.494,-0.5"/>
<text text-anchor="middle" x="206.994" y="-138.3" font-family="Times,serif" font-size="14.00">AdminController</text>
<polyline fill="none" stroke="black" points="108.494,-130.5 305.494,-130.5 "/>
<text text-anchor="start" x="116.494" y="-115.3" font-family="Times,serif" font-size="14.00">_one_time_conditions_valid_92?</text>
<text text-anchor="start" x="116.494" y="-100.3" font-family="Times,serif" font-size="14.00">create</text>
<text text-anchor="start" x="116.494" y="-85.3" font-family="Times,serif" font-size="14.00">destroy</text>
<text text-anchor="start" x="116.494" y="-70.3" font-family="Times,serif" font-size="14.00">index</text>
<text text-anchor="start" x="116.494" y="-55.3" font-family="Times,serif" font-size="14.00">show</text>
<polyline fill="none" stroke="black" points="108.494,-47.5 305.494,-47.5 "/>
<polyline fill="none" stroke="black" points="108.494,-23.5 305.494,-23.5 "/>
<text text-anchor="start" x="116.494" y="-8.3" font-family="Times,serif" font-size="14.00">_layout</text>
</g>
<!-- ApplicationController&#45;&gt;AdminController -->
<g id="edge2" class="edge"><title>ApplicationController&#45;&gt;AdminController</title>
<path fill="none" stroke="black" d="M125.041,-221.74C136.646,-201.243 150.565,-176.662 163.61,-153.623"/>
</g>
</g>
</svg>
