<?xml version="1.0" encoding="UTF-8" standalone="no"?>
<!DOCTYPE svg PUBLIC "-//W3C//DTD SVG 1.1//EN"
 "http://www.w3.org/Graphics/SVG/1.1/DTD/svg11.dtd">
<!-- Generated by graphviz version 2.30.0 (20130412.1044)
 -->
<!-- Title: controllers_diagram Pages: 1 -->
<svg width="586pt" height="320pt"
 viewBox="0.00 0.00 586.00 320.00" xmlns="http://www.w3.org/2000/svg" xmlns:xlink="http://www.w3.org/1999/xlink">
<g id="graph0" class="graph" transform="scale(1 1) rotate(0) translate(4 316)">
<title>controllers_diagram</title>
<polygon fill="white" stroke="white" points="-4,5 -4,-316 583,-316 583,5 -4,5"/>
<!-- CommentController -->
<g id="node2" class="node"><title>CommentController</title>
<ellipse fill="none" stroke="black" cx="82.5427" cy="-57.774" rx="82.5854" ry="18"/>
<text text-anchor="middle" x="82.5427" y="-54.074" font-family="Times,serif" font-size="14.00">CommentController</text>
</g>
<!-- ApplicationController -->
<g id="node3" class="node"><title>ApplicationController</title>
<ellipse fill="none" stroke="black" cx="229.288" cy="-99.3161" rx="88.2844" ry="18"/>
<text text-anchor="middle" x="229.288" y="-95.6161" font-family="Times,serif" font-size="14.00">ApplicationController</text>
</g>
<!-- ApplicationController&#45;&gt;CommentController -->
<g id="edge1" class="edge"><title>ApplicationController&#45;&gt;CommentController</title>
<path fill="none" stroke="black" d="M177.551,-84.6699C163.193,-80.6053 147.621,-76.197 133.319,-72.1481"/>
</g>
<!-- CalendarController -->
<g id="node4" class="node"><title>CalendarController</title>
<ellipse fill="none" stroke="black" cx="337.697" cy="-25.528" rx="78.7863" ry="18"/>
<text text-anchor="middle" x="337.697" y="-21.828" font-family="Times,serif" font-size="14.00">CalendarController</text>
</g>
<!-- ApplicationController&#45;&gt;CalendarController -->
<g id="edge2" class="edge"><title>ApplicationController&#45;&gt;CalendarController</title>
<path fill="none" stroke="black" d="M254.705,-82.0161C272.103,-70.1742 295.075,-54.5383 312.439,-42.7196"/>
</g>
<!-- TodoController -->
<g id="node5" class="node"><title>TodoController</title>
<ellipse fill="none" stroke="black" cx="270.128" cy="-180.613" rx="65.7887" ry="18"/>
<text text-anchor="middle" x="270.128" y="-176.913" font-family="Times,serif" font-size="14.00">TodoController</text>
</g>
<!-- ApplicationController&#45;&gt;TodoController -->
<g id="edge3" class="edge"><title>ApplicationController&#45;&gt;TodoController</title>
<path fill="none" stroke="black" d="M238.352,-117.358C245.12,-130.831 254.328,-149.161 261.09,-162.621"/>
</g>
<!-- FeedController -->
<g id="node6" class="node"><title>FeedController</title>
<ellipse fill="none" stroke="black" cx="367.236" cy="-139.267" rx="63.8893" ry="18"/>
<text text-anchor="middle" x="367.236" y="-135.567" font-family="Times,serif" font-size="14.00">FeedController</text>
</g>
<!-- ApplicationController&#45;&gt;FeedController -->
<g id="edge4" class="edge"><title>ApplicationController&#45;&gt;FeedController</title>
<path fill="none" stroke="black" d="M280.263,-114.079C294.078,-118.08 308.929,-122.381 322.38,-126.276"/>
</g>
<!-- AdminController -->
<g id="node7" class="node"><title>AdminController</title>
<ellipse fill="none" stroke="black" cx="115.408" cy="-171.592" rx="71.4873" ry="18"/>
<text text-anchor="middle" x="115.408" y="-167.892" font-family="Times,serif" font-size="14.00">AdminController</text>
</g>
<!-- ApplicationController&#45;&gt;AdminController -->
<g id="edge5" class="edge"><title>ApplicationController&#45;&gt;AdminController</title>
<path fill="none" stroke="black" d="M202.011,-116.628C183.85,-128.154 160.103,-143.226 142.069,-154.671"/>
</g>
<!-- MapController -->
<g id="node8" class="node"><title>MapController</title>
<ellipse fill="none" stroke="black" cx="187.435" cy="-18" rx="63.8893" ry="18"/>
<text text-anchor="middle" x="187.435" y="-14.3" font-family="Times,serif" font-size="14.00">MapController</text>
</g>
<!-- ApplicationController&#45;&gt;MapController -->
<g id="edge6" class="edge"><title>ApplicationController&#45;&gt;MapController</title>
<path fill="none" stroke="black" d="M219.999,-81.2694C213.064,-67.794 203.627,-49.4595 196.697,-35.9962"/>
</g>
</g>
</svg>
