<?xml version="1.0" encoding="UTF-8" standalone="no"?>
<!DOCTYPE svg PUBLIC "-//W3C//DTD SVG 1.1//EN"
 "http://www.w3.org/Graphics/SVG/1.1/DTD/svg11.dtd">
<!-- Generated by graphviz version 2.30.0 (20130412.1044)
 -->
<!-- Title: models_diagram Pages: 1 -->
<svg width="388pt" height="302pt"
 viewBox="0.00 0.00 388.00 302.00" xmlns="http://www.w3.org/2000/svg" xmlns:xlink="http://www.w3.org/1999/xlink">
<g id="graph0" class="graph" transform="scale(1 1) rotate(0) translate(4 298)">
<title>models_diagram</title>
<polygon fill="white" stroke="white" points="-4,5 -4,-298 385,-298 385,5 -4,5"/>
<!-- _diagram_info -->
<g id="node1" class="node"><title>_diagram_info</title>
<text text-anchor="start" x="8" y="-279.6" font-family="Times,serif" font-size="13.00">Models diagram</text>
<text text-anchor="start" x="8" y="-265.6" font-family="Times,serif" font-size="13.00">Date: Apr 12 2013 &#45; 13:59</text>
<text text-anchor="start" x="8" y="-251.6" font-family="Times,serif" font-size="13.00">Migration version: 20130412104040</text>
<text text-anchor="start" x="8" y="-237.6" font-family="Times,serif" font-size="13.00">Generated by RailRoady 1.1.0</text>
<text text-anchor="start" x="8" y="-223.6" font-family="Times,serif" font-size="13.00">http://railroady.prestonlee.com</text>
</g>
<!-- User -->
<g id="node2" class="node"><title>User</title>
<ellipse fill="none" stroke="black" cx="213" cy="-162" rx="26.949" ry="18"/>
<text text-anchor="middle" x="213" y="-158.3" font-family="Times,serif" font-size="14.00">User</text>
</g>
<!-- Post -->
<g id="node6" class="node"><title>Post</title>
<ellipse fill="none" stroke="black" cx="240" cy="-90" rx="27" ry="18"/>
<text text-anchor="middle" x="240" y="-86.3" font-family="Times,serif" font-size="14.00">Post</text>
</g>
<!-- User&#45;&gt;Post -->
<g id="edge1" class="edge"><title>User&#45;&gt;Post</title>
<path fill="none" stroke="#76bbf1" d="M222.343,-136.778C224.747,-130.544 227.347,-123.805 229.793,-117.463"/>
<ellipse fill="none" stroke="#76bbf1" cx="220.838" cy="-140.679" rx="4.00001" ry="4.00001"/>
<polygon fill="#76bbf1" stroke="#76bbf1" points="229.861,-117.286 237.658,-109.576 231.66,-112.621 233.46,-107.956 233.46,-107.956 233.46,-107.956 231.66,-112.621 229.261,-106.337 229.861,-117.286 229.861,-117.286"/>
</g>
<!-- Calendar -->
<g id="node5" class="node"><title>Calendar</title>
<ellipse fill="none" stroke="black" cx="338" cy="-18" rx="42.3701" ry="18"/>
<text text-anchor="middle" x="338" y="-14.3" font-family="Times,serif" font-size="14.00">Calendar</text>
</g>
<!-- User&#45;&gt;Calendar -->
<g id="edge2" class="edge"><title>User&#45;&gt;Calendar</title>
<path fill="none" stroke="#4e48e5" d="M238.578,-142.016C250.597,-132.482 264.725,-120.35 276,-108 294.112,-88.1607 311.291,-62.7953 322.953,-44.2233"/>
<polygon fill="#4e48e5" stroke="#4e48e5" points="238.552,-142.036 227.895,-144.618 234.604,-145.103 230.656,-148.171 230.656,-148.171 230.656,-148.171 234.604,-145.103 233.417,-151.725 238.552,-142.036 238.552,-142.036"/>
<polygon fill="#4e48e5" stroke="#4e48e5" points="322.959,-44.2136 332.042,-38.0708 325.586,-39.9597 328.214,-35.7059 328.214,-35.7059 328.214,-35.7059 325.586,-39.9597 324.385,-33.3409 322.959,-44.2136 322.959,-44.2136"/>
</g>
<!-- Todo -->
<g id="node3" class="node"><title>Todo</title>
<ellipse fill="none" stroke="black" cx="147" cy="-18" rx="29.3722" ry="18"/>
<text text-anchor="middle" x="147" y="-14.3" font-family="Times,serif" font-size="14.00">Todo</text>
</g>
<!-- User&#45;&gt;Todo -->
<g id="edge3" class="edge"><title>User&#45;&gt;Todo</title>
<path fill="none" stroke="#dc4541" d="M201.205,-135.622C189.273,-109.95 170.925,-70.4743 158.941,-44.6907"/>
<polygon fill="#dc4541" stroke="#dc4541" points="201.214,-135.642 201.348,-146.608 203.321,-140.177 205.429,-144.711 205.429,-144.711 205.429,-144.711 203.321,-140.177 209.51,-142.814 201.214,-135.642 201.214,-135.642"/>
<polygon fill="#dc4541" stroke="#dc4541" points="158.901,-44.605 158.767,-33.6399 156.793,-40.0708 154.686,-35.5366 154.686,-35.5366 154.686,-35.5366 156.793,-40.0708 150.605,-37.4333 158.901,-44.605 158.901,-44.605"/>
</g>
<!-- Checkin -->
<g id="node4" class="node"><title>Checkin</title>
<ellipse fill="none" stroke="black" cx="237" cy="-18" rx="39.9464" ry="18"/>
<text text-anchor="middle" x="237" y="-14.3" font-family="Times,serif" font-size="14.00">Checkin</text>
</g>
<!-- User&#45;&gt;Checkin -->
<g id="edge4" class="edge"><title>User&#45;&gt;Checkin</title>
<path fill="none" stroke="#7a66ca" d="M205.191,-134.483C201.145,-116.54 198.148,-92.4708 204,-72 206.875,-61.9447 212.27,-51.9404 217.878,-43.3769"/>
<polygon fill="#7a66ca" stroke="#7a66ca" points="205.211,-134.565 203.27,-145.358 206.424,-139.416 207.636,-144.267 207.636,-144.267 207.636,-144.267 206.424,-139.416 212.002,-143.175 205.211,-134.565 205.211,-134.565"/>
<polygon fill="#7a66ca" stroke="#7a66ca" points="217.978,-43.233 227.392,-37.6084 220.84,-39.1329 223.701,-35.0328 223.701,-35.0328 223.701,-35.0328 220.84,-39.1329 220.011,-32.4573 217.978,-43.233 217.978,-43.233"/>
</g>
<!-- Post&#45;&gt;Calendar -->
<g id="edge5" class="edge"><title>Post&#45;&gt;Calendar</title>
<path fill="none" stroke="#2bedb0" d="M264.585,-71.4394C278.485,-61.5107 295.907,-49.0667 310.29,-38.7929"/>
<ellipse fill="none" stroke="#2bedb0" cx="261.23" cy="-73.8359" rx="4.00002" ry="4.00002"/>
<ellipse fill="#2bedb0" stroke="#2bedb0" cx="313.823" cy="-36.2693" rx="4.00002" ry="4.00002"/>
</g>
<!-- Post&#45;&gt;Todo -->
<g id="edge6" class="edge"><title>Post&#45;&gt;Todo</title>
<path fill="none" stroke="#ebf279" d="M215.962,-70.907C202.2,-60.5481 184.982,-47.5886 171.194,-37.2102"/>
<ellipse fill="none" stroke="#ebf279" cx="219.312" cy="-73.428" rx="4.00002" ry="4.00002"/>
<ellipse fill="#ebf279" stroke="#ebf279" cx="167.926" cy="-34.7509" rx="4.00002" ry="4.00002"/>
</g>
<!-- Post&#45;&gt;Checkin -->
<g id="edge7" class="edge"><title>Post&#45;&gt;Checkin</title>
<path fill="none" stroke="#0e071f" d="M238.913,-63.6398C238.643,-57.348 238.355,-50.6053 238.085,-44.3156"/>
<ellipse fill="none" stroke="#0e071f" cx="239.087" cy="-67.7003" rx="4" ry="4"/>
<ellipse fill="#0e071f" stroke="#0e071f" cx="237.904" cy="-40.1007" rx="4" ry="4"/>
</g>
<!-- Family -->
<g id="node7" class="node"><title>Family</title>
<ellipse fill="none" stroke="black" cx="268" cy="-255" rx="36.096" ry="18"/>
<text text-anchor="middle" x="268" y="-251.3" font-family="Times,serif" font-size="14.00">Family</text>
</g>
<!-- Family&#45;&gt;User -->
<g id="edge8" class="edge"><title>Family&#45;&gt;User</title>
<path fill="none" stroke="#7ab280" d="M253.655,-230.266C245.722,-217.14 235.879,-200.854 227.865,-187.595"/>
<ellipse fill="none" stroke="#7ab280" cx="255.843" cy="-233.886" rx="4.00002" ry="4.00002"/>
<polygon fill="#7ab280" stroke="#7ab280" points="227.828,-187.533 226.506,-176.647 225.241,-183.254 222.655,-178.975 222.655,-178.975 222.655,-178.975 225.241,-183.254 218.804,-181.302 227.828,-187.533 227.828,-187.533"/>
</g>
<!-- Family&#45;&gt;Post -->
<g id="edge9" class="edge"><title>Family&#45;&gt;Post</title>
<path fill="none" stroke="#f21303" d="M263.689,-228.901C258.529,-198.865 249.924,-148.774 244.628,-117.944"/>
<ellipse fill="none" stroke="#f21303" cx="264.379" cy="-232.922" rx="4.00001" ry="4.00001"/>
<polygon fill="#f21303" stroke="#f21303" points="244.597,-117.762 247.339,-107.144 243.751,-112.834 242.904,-107.906 242.904,-107.906 242.904,-107.906 243.751,-112.834 238.469,-108.668 244.597,-117.762 244.597,-117.762"/>
</g>
<!-- Family&#45;&gt;Calendar -->
<g id="edge10" class="edge"><title>Family&#45;&gt;Calendar</title>
<path fill="none" stroke="#3ad191" d="M278.849,-229.74C284.984,-215.447 292.503,-196.908 298,-180 313.041,-133.737 325.647,-78.4345 332.484,-46.1605"/>
<ellipse fill="none" stroke="#3ad191" cx="277.199" cy="-233.537" rx="4.00002" ry="4.00002"/>
<polygon fill="#3ad191" stroke="#3ad191" points="332.531,-45.9332 338.981,-37.0648 333.554,-41.0389 334.576,-36.1445 334.576,-36.1445 334.576,-36.1445 333.554,-41.0389 330.171,-35.2242 332.531,-45.9332 332.531,-45.9332"/>
</g>
<!-- Family&#45;&gt;Todo -->
<g id="edge11" class="edge"><title>Family&#45;&gt;Todo</title>
<path fill="none" stroke="#829c6b" d="M243.902,-233.973C236.86,-228.154 229.138,-221.803 222,-216 202.126,-199.843 190.171,-201.966 177,-180 151.932,-138.193 146.985,-80.1733 146.452,-46.407"/>
<ellipse fill="none" stroke="#829c6b" cx="247.059" cy="-236.586" rx="4.00002" ry="4.00002"/>
<polygon fill="#829c6b" stroke="#829c6b" points="146.452,-46.3473 150.914,-36.3304 146.433,-41.3473 146.414,-36.3474 146.414,-36.3474 146.414,-36.3474 146.433,-41.3473 141.914,-36.3644 146.452,-46.3473 146.452,-46.3473"/>
</g>
<!-- Family&#45;&gt;Checkin -->
<g id="edge12" class="edge"><title>Family&#45;&gt;Checkin</title>
<path fill="none" stroke="#c4d375" d="M274.573,-228.913C282.751,-193.094 293.626,-125.692 276,-72 272.49,-61.3069 265.906,-50.995 259.133,-42.3543"/>
<ellipse fill="none" stroke="#c4d375" cx="273.6" cy="-233.004" rx="4.00001" ry="4.00001"/>
<polygon fill="#c4d375" stroke="#c4d375" points="259.087,-42.2992 256.13,-31.7395 255.882,-38.4617 252.677,-34.6242 252.677,-34.6242 252.677,-34.6242 255.882,-38.4617 249.223,-37.509 259.087,-42.2992 259.087,-42.2992"/>
</g>
</g>
</svg>
