<?xml version="1.0" encoding="UTF-8" standalone="no"?>
<!DOCTYPE svg PUBLIC "-//W3C//DTD SVG 1.1//EN"
 "http://www.w3.org/Graphics/SVG/1.1/DTD/svg11.dtd">
<!-- Generated by graphviz version 2.30.0 (20130412.1044)
 -->
<!-- Title: models_diagram Pages: 1 -->
<svg width="558pt" height="976pt"
 viewBox="0.00 0.00 558.00 976.00" xmlns="http://www.w3.org/2000/svg" xmlns:xlink="http://www.w3.org/1999/xlink">
<g id="graph0" class="graph" transform="scale(1 1) rotate(0) translate(4 972)">
<title>models_diagram</title>
<polygon fill="white" stroke="white" points="-4,5 -4,-972 555,-972 555,5 -4,5"/>
<!-- _diagram_info -->
<g id="node1" class="node"><title>_diagram_info</title>
<text text-anchor="start" x="8" y="-946.6" font-family="Times,serif" font-size="13.00">Models diagram</text>
<text text-anchor="start" x="8" y="-932.6" font-family="Times,serif" font-size="13.00">Date: Apr 15 2013 &#45; 13:19</text>
<text text-anchor="start" x="8" y="-918.6" font-family="Times,serif" font-size="13.00">Migration version: 20130414105154</text>
<text text-anchor="start" x="8" y="-904.6" font-family="Times,serif" font-size="13.00">Generated by RailRoady 1.1.0</text>
<text text-anchor="start" x="8" y="-890.6" font-family="Times,serif" font-size="13.00">http://railroady.prestonlee.com</text>
</g>
<!-- User -->
<g id="node2" class="node"><title>User</title>
<path fill="none" stroke="black" d="M210,-583C210,-583 386,-583 386,-583 392,-583 398,-589 398,-595 398,-595 398,-827 398,-827 398,-833 392,-839 386,-839 386,-839 210,-839 210,-839 204,-839 198,-833 198,-827 198,-827 198,-595 198,-595 198,-589 204,-583 210,-583"/>
<text text-anchor="middle" x="298" y="-823.8" font-family="Times,serif" font-size="14.00">User</text>
<polyline fill="none" stroke="black" points="198,-816 398,-816 "/>
<text text-anchor="start" x="206" y="-800.8" font-family="Times,serif" font-size="14.00">id :integer</text>
<text text-anchor="start" x="206" y="-785.8" font-family="Times,serif" font-size="14.00">email :string</text>
<text text-anchor="start" x="206" y="-770.8" font-family="Times,serif" font-size="14.00">encrypted_password :string</text>
<text text-anchor="start" x="206" y="-755.8" font-family="Times,serif" font-size="14.00">reset_password_token :string</text>
<text text-anchor="start" x="206" y="-740.8" font-family="Times,serif" font-size="14.00">reset_password_sent_at :datetime</text>
<text text-anchor="start" x="206" y="-725.8" font-family="Times,serif" font-size="14.00">remember_created_at :datetime</text>
<text text-anchor="start" x="206" y="-710.8" font-family="Times,serif" font-size="14.00">sign_in_count :integer</text>
<text text-anchor="start" x="206" y="-695.8" font-family="Times,serif" font-size="14.00">current_sign_in_at :datetime</text>
<text text-anchor="start" x="206" y="-680.8" font-family="Times,serif" font-size="14.00">last_sign_in_at :datetime</text>
<text text-anchor="start" x="206" y="-665.8" font-family="Times,serif" font-size="14.00">current_sign_in_ip :string</text>
<text text-anchor="start" x="206" y="-650.8" font-family="Times,serif" font-size="14.00">last_sign_in_ip :string</text>
<text text-anchor="start" x="206" y="-635.8" font-family="Times,serif" font-size="14.00">created_at :datetime</text>
<text text-anchor="start" x="206" y="-620.8" font-family="Times,serif" font-size="14.00">updated_at :datetime</text>
<text text-anchor="start" x="206" y="-605.8" font-family="Times,serif" font-size="14.00">family_id :integer</text>
<text text-anchor="start" x="206" y="-590.8" font-family="Times,serif" font-size="14.00">name :string</text>
</g>
<!-- Post -->
<g id="node6" class="node"><title>Post</title>
<path fill="none" stroke="black" d="M150.5,-379C150.5,-379 257.5,-379 257.5,-379 263.5,-379 269.5,-385 269.5,-391 269.5,-391 269.5,-533 269.5,-533 269.5,-539 263.5,-545 257.5,-545 257.5,-545 150.5,-545 150.5,-545 144.5,-545 138.5,-539 138.5,-533 138.5,-533 138.5,-391 138.5,-391 138.5,-385 144.5,-379 150.5,-379"/>
<text text-anchor="middle" x="204" y="-529.8" font-family="Times,serif" font-size="14.00">Post</text>
<polyline fill="none" stroke="black" points="138.5,-522 269.5,-522 "/>
<text text-anchor="start" x="146.5" y="-506.8" font-family="Times,serif" font-size="14.00">id :integer</text>
<text text-anchor="start" x="146.5" y="-491.8" font-family="Times,serif" font-size="14.00">text :text</text>
<text text-anchor="start" x="146.5" y="-476.8" font-family="Times,serif" font-size="14.00">user_id :integer</text>
<text text-anchor="start" x="146.5" y="-461.8" font-family="Times,serif" font-size="14.00">calendar_id :integer</text>
<text text-anchor="start" x="146.5" y="-446.8" font-family="Times,serif" font-size="14.00">todo_id :integer</text>
<text text-anchor="start" x="146.5" y="-431.8" font-family="Times,serif" font-size="14.00">created_at :datetime</text>
<text text-anchor="start" x="146.5" y="-416.8" font-family="Times,serif" font-size="14.00">updated_at :datetime</text>
<text text-anchor="start" x="146.5" y="-401.8" font-family="Times,serif" font-size="14.00">family_id :integer</text>
<text text-anchor="start" x="146.5" y="-386.8" font-family="Times,serif" font-size="14.00">checkin_id :integer</text>
</g>
<!-- User&#45;&gt;Post -->
<g id="edge1" class="edge"><title>User&#45;&gt;Post</title>
<path fill="none" stroke="#371d39" d="M246.667,-575.114C244.075,-568.302 241.5,-561.537 238.975,-554.902"/>
<ellipse fill="none" stroke="#371d39" cx="248.2" cy="-579.144" rx="4.00001" ry="4.00001"/>
<polygon fill="#371d39" stroke="#371d39" points="238.872,-554.631 239.521,-543.684 237.093,-549.958 235.315,-545.285 235.315,-545.285 235.315,-545.285 237.093,-549.958 231.109,-546.886 238.872,-554.631 238.872,-554.631"/>
</g>
<!-- Calendar -->
<g id="node5" class="node"><title>Calendar</title>
<path fill="none" stroke="black" d="M431.5,-182.5C431.5,-182.5 538.5,-182.5 538.5,-182.5 544.5,-182.5 550.5,-188.5 550.5,-194.5 550.5,-194.5 550.5,-321.5 550.5,-321.5 550.5,-327.5 544.5,-333.5 538.5,-333.5 538.5,-333.5 431.5,-333.5 431.5,-333.5 425.5,-333.5 419.5,-327.5 419.5,-321.5 419.5,-321.5 419.5,-194.5 419.5,-194.5 419.5,-188.5 425.5,-182.5 431.5,-182.5"/>
<text text-anchor="middle" x="485" y="-318.3" font-family="Times,serif" font-size="14.00">Calendar</text>
<polyline fill="none" stroke="black" points="419.5,-310.5 550.5,-310.5 "/>
<text text-anchor="start" x="427.5" y="-295.3" font-family="Times,serif" font-size="14.00">id :integer</text>
<text text-anchor="start" x="427.5" y="-280.3" font-family="Times,serif" font-size="14.00">date :datetime</text>
<text text-anchor="start" x="427.5" y="-265.3" font-family="Times,serif" font-size="14.00">text :text</text>
<text text-anchor="start" x="427.5" y="-250.3" font-family="Times,serif" font-size="14.00">user_id :integer</text>
<text text-anchor="start" x="427.5" y="-235.3" font-family="Times,serif" font-size="14.00">post_id :integer</text>
<text text-anchor="start" x="427.5" y="-220.3" font-family="Times,serif" font-size="14.00">created_at :datetime</text>
<text text-anchor="start" x="427.5" y="-205.3" font-family="Times,serif" font-size="14.00">updated_at :datetime</text>
<text text-anchor="start" x="427.5" y="-190.3" font-family="Times,serif" font-size="14.00">family_id :integer</text>
</g>
<!-- User&#45;&gt;Calendar -->
<g id="edge2" class="edge"><title>User&#45;&gt;Calendar</title>
<path fill="none" stroke="#575071" d="M354.655,-573.361C385.759,-498.346 423.339,-407.712 450.14,-343.075"/>
<polygon fill="#575071" stroke="#575071" points="354.542,-573.633 346.555,-581.147 352.627,-578.252 350.712,-582.871 350.712,-582.871 350.712,-582.871 352.627,-578.252 354.869,-584.594 354.542,-573.633 354.542,-573.633"/>
<polygon fill="#575071" stroke="#575071" points="450.183,-342.969 458.171,-335.455 452.099,-338.35 454.014,-333.732 454.014,-333.732 454.014,-333.732 452.099,-338.35 449.857,-332.008 450.183,-342.969 450.183,-342.969"/>
</g>
<!-- Todo -->
<g id="node3" class="node"><title>Todo</title>
<path fill="none" stroke="black" d="M282.5,-175C282.5,-175 389.5,-175 389.5,-175 395.5,-175 401.5,-181 401.5,-187 401.5,-187 401.5,-329 401.5,-329 401.5,-335 395.5,-341 389.5,-341 389.5,-341 282.5,-341 282.5,-341 276.5,-341 270.5,-335 270.5,-329 270.5,-329 270.5,-187 270.5,-187 270.5,-181 276.5,-175 282.5,-175"/>
<text text-anchor="middle" x="336" y="-325.8" font-family="Times,serif" font-size="14.00">Todo</text>
<polyline fill="none" stroke="black" points="270.5,-318 401.5,-318 "/>
<text text-anchor="start" x="278.5" y="-302.8" font-family="Times,serif" font-size="14.00">id :integer</text>
<text text-anchor="start" x="278.5" y="-287.8" font-family="Times,serif" font-size="14.00">type :string</text>
<text text-anchor="start" x="278.5" y="-272.8" font-family="Times,serif" font-size="14.00">text :text</text>
<text text-anchor="start" x="278.5" y="-257.8" font-family="Times,serif" font-size="14.00">user_id :integer</text>
<text text-anchor="start" x="278.5" y="-242.8" font-family="Times,serif" font-size="14.00">post_id :integer</text>
<text text-anchor="start" x="278.5" y="-227.8" font-family="Times,serif" font-size="14.00">status :string</text>
<text text-anchor="start" x="278.5" y="-212.8" font-family="Times,serif" font-size="14.00">created_at :datetime</text>
<text text-anchor="start" x="278.5" y="-197.8" font-family="Times,serif" font-size="14.00">updated_at :datetime</text>
<text text-anchor="start" x="278.5" y="-182.8" font-family="Times,serif" font-size="14.00">family_id :integer</text>
</g>
<!-- User&#45;&gt;Todo -->
<g id="edge3" class="edge"><title>User&#45;&gt;Todo</title>
<path fill="none" stroke="#7f2f7d" d="M309.742,-572.658C310.508,-563.637 311.266,-554.689 312,-546 317.489,-481.039 323.612,-407.801 328.3,-351.568"/>
<polygon fill="#7f2f7d" stroke="#7f2f7d" points="309.721,-572.901 304.391,-582.485 309.298,-577.883 308.875,-582.865 308.875,-582.865 308.875,-582.865 309.298,-577.883 313.359,-583.246 309.721,-572.901 309.721,-572.901"/>
<polygon fill="#7f2f7d" stroke="#7f2f7d" points="328.327,-351.237 333.643,-341.645 328.743,-346.254 329.158,-341.272 329.158,-341.272 329.158,-341.272 328.743,-346.254 324.674,-340.898 328.327,-351.237 328.327,-351.237"/>
</g>
<!-- Checkin -->
<g id="node4" class="node"><title>Checkin</title>
<path fill="none" stroke="black" d="M56.5,-190C56.5,-190 163.5,-190 163.5,-190 169.5,-190 175.5,-196 175.5,-202 175.5,-202 175.5,-314 175.5,-314 175.5,-320 169.5,-326 163.5,-326 163.5,-326 56.5,-326 56.5,-326 50.5,-326 44.5,-320 44.5,-314 44.5,-314 44.5,-202 44.5,-202 44.5,-196 50.5,-190 56.5,-190"/>
<text text-anchor="middle" x="110" y="-310.8" font-family="Times,serif" font-size="14.00">Checkin</text>
<polyline fill="none" stroke="black" points="44.5,-303 175.5,-303 "/>
<text text-anchor="start" x="52.5" y="-287.8" font-family="Times,serif" font-size="14.00">id :integer</text>
<text text-anchor="start" x="52.5" y="-272.8" font-family="Times,serif" font-size="14.00">place :string</text>
<text text-anchor="start" x="52.5" y="-257.8" font-family="Times,serif" font-size="14.00">user_id :integer</text>
<text text-anchor="start" x="52.5" y="-242.8" font-family="Times,serif" font-size="14.00">family_id :integer</text>
<text text-anchor="start" x="52.5" y="-227.8" font-family="Times,serif" font-size="14.00">created_at :datetime</text>
<text text-anchor="start" x="52.5" y="-212.8" font-family="Times,serif" font-size="14.00">updated_at :datetime</text>
<text text-anchor="start" x="52.5" y="-197.8" font-family="Times,serif" font-size="14.00">post_id :integer</text>
</g>
<!-- User&#45;&gt;Checkin -->
<g id="edge4" class="edge"><title>User&#45;&gt;Checkin</title>
<path fill="none" stroke="#528b0f" d="M190.539,-628.975C166.173,-605.054 143.294,-576.902 129,-546 98.4804,-480.022 96.5274,-396.273 100.521,-336.3"/>
<polygon fill="#528b0f" stroke="#528b0f" points="190.575,-629.01 194.675,-639.181 194.183,-632.472 197.791,-635.934 197.791,-635.934 197.791,-635.934 194.183,-632.472 200.906,-632.687 190.575,-629.01 190.575,-629.01"/>
<polygon fill="#528b0f" stroke="#528b0f" points="100.535,-336.111 105.757,-326.469 100.902,-331.125 101.269,-326.138 101.269,-326.138 101.269,-326.138 100.902,-331.125 96.7814,-325.808 100.535,-336.111 100.535,-336.111"/>
</g>
<!-- Comment -->
<g id="node7" class="node"><title>Comment</title>
<path fill="none" stroke="black" d="M188.5,-1C188.5,-1 295.5,-1 295.5,-1 301.5,-1 307.5,-7 307.5,-13 307.5,-13 307.5,-125 307.5,-125 307.5,-131 301.5,-137 295.5,-137 295.5,-137 188.5,-137 188.5,-137 182.5,-137 176.5,-131 176.5,-125 176.5,-125 176.5,-13 176.5,-13 176.5,-7 182.5,-1 188.5,-1"/>
<text text-anchor="middle" x="242" y="-121.8" font-family="Times,serif" font-size="14.00">Comment</text>
<polyline fill="none" stroke="black" points="176.5,-114 307.5,-114 "/>
<text text-anchor="start" x="184.5" y="-98.8" font-family="Times,serif" font-size="14.00">id :integer</text>
<text text-anchor="start" x="184.5" y="-83.8" font-family="Times,serif" font-size="14.00">text :text</text>
<text text-anchor="start" x="184.5" y="-68.8" font-family="Times,serif" font-size="14.00">post_id :integer</text>
<text text-anchor="start" x="184.5" y="-53.8" font-family="Times,serif" font-size="14.00">calendar_id :integer</text>
<text text-anchor="start" x="184.5" y="-38.8" font-family="Times,serif" font-size="14.00">user_id :integer</text>
<text text-anchor="start" x="184.5" y="-23.8" font-family="Times,serif" font-size="14.00">created_at :datetime</text>
<text text-anchor="start" x="184.5" y="-8.8" font-family="Times,serif" font-size="14.00">updated_at :datetime</text>
</g>
<!-- User&#45;&gt;Comment -->
<g id="edge5" class="edge"><title>User&#45;&gt;Comment</title>
<path fill="none" stroke="#6fb640" d="M300.67,-572.327C299.043,-511.956 293.293,-440.71 278,-378 273.852,-360.989 266.261,-358.983 262,-342 245.865,-277.687 241.398,-202.346 240.661,-147.286"/>
<polygon fill="#6fb640" stroke="#6fb640" points="300.678,-572.694 296.413,-582.796 300.795,-577.693 300.911,-582.691 300.911,-582.691 300.911,-582.691 300.795,-577.693 305.41,-582.586 300.678,-572.694 300.678,-572.694"/>
<polygon fill="#6fb640" stroke="#6fb640" points="240.661,-147.248 245.065,-137.205 240.613,-142.248 240.565,-137.248 240.565,-137.248 240.565,-137.248 240.613,-142.248 236.065,-137.291 240.661,-147.248 240.661,-147.248"/>
</g>
<!-- Calendar&#45;&gt;Comment -->
<g id="edge6" class="edge"><title>Calendar&#45;&gt;Comment</title>
<path fill="none" stroke="#e8b686" d="M413.226,-176.738C412.152,-175.811 411.077,-174.898 410,-174 381.348,-150.103 346.717,-127.74 316.36,-109.92"/>
<ellipse fill="none" stroke="#e8b686" cx="416.361" cy="-179.528" rx="4.00002" ry="4.00002"/>
<polygon fill="#e8b686" stroke="#e8b686" points="316.153,-109.8 309.764,-100.887 311.829,-107.289 307.505,-104.778 307.505,-104.778 307.505,-104.778 311.829,-107.289 305.245,-108.67 316.153,-109.8 316.153,-109.8"/>
</g>
<!-- Post&#45;&gt;Calendar -->
<g id="edge7" class="edge"><title>Post&#45;&gt;Calendar</title>
<path fill="none" stroke="#ab462a" d="M277.25,-425.865C318.288,-404.469 369.248,-374.948 410,-342 411.246,-340.993 412.489,-339.964 413.729,-338.916"/>
<ellipse fill="none" stroke="#ab462a" cx="273.522" cy="-427.793" rx="4.00002" ry="4.00002"/>
<ellipse fill="#ab462a" stroke="#ab462a" cx="416.882" cy="-336.164" rx="4.00002" ry="4.00002"/>
</g>
<!-- Post&#45;&gt;Todo -->
<g id="edge8" class="edge"><title>Post&#45;&gt;Todo</title>
<path fill="none" stroke="#08a9d2" d="M262.098,-372.093C267.361,-364.038 272.693,-355.879 277.956,-347.825"/>
<ellipse fill="none" stroke="#08a9d2" cx="259.878" cy="-375.49" rx="4.00002" ry="4.00002"/>
<ellipse fill="#08a9d2" stroke="#08a9d2" cx="280.17" cy="-344.437" rx="4.00002" ry="4.00002"/>
</g>
<!-- Post&#45;&gt;Checkin -->
<g id="edge9" class="edge"><title>Post&#45;&gt;Checkin</title>
<path fill="none" stroke="#3ebce7" d="M162.317,-371.426C156.471,-358.863 150.514,-346.061 144.813,-333.812"/>
<ellipse fill="none" stroke="#3ebce7" cx="164.079" cy="-375.212" rx="4.00002" ry="4.00002"/>
<ellipse fill="#3ebce7" stroke="#3ebce7" cx="142.988" cy="-329.89" rx="4.00002" ry="4.00002"/>
</g>
<!-- Post&#45;&gt;Comment -->
<g id="edge10" class="edge"><title>Post&#45;&gt;Comment</title>
<path fill="none" stroke="#6ea118" d="M210.378,-370.722C214.665,-314.142 220.832,-239.734 228,-174 228.947,-165.315 230.031,-156.235 231.166,-147.212"/>
<ellipse fill="none" stroke="#6ea118" cx="210.059" cy="-374.948" rx="4" ry="4"/>
<polygon fill="#6ea118" stroke="#6ea118" points="231.194,-146.992 236.929,-137.646 231.83,-142.033 232.466,-137.073 232.466,-137.073 232.466,-137.073 231.83,-142.033 228.002,-136.501 231.194,-146.992 231.194,-146.992"/>
</g>
<!-- Family -->
<g id="node8" class="node"><title>Family</title>
<path fill="none" stroke="black" d="M244.5,-876.5C244.5,-876.5 351.5,-876.5 351.5,-876.5 357.5,-876.5 363.5,-882.5 363.5,-888.5 363.5,-888.5 363.5,-955.5 363.5,-955.5 363.5,-961.5 357.5,-967.5 351.5,-967.5 351.5,-967.5 244.5,-967.5 244.5,-967.5 238.5,-967.5 232.5,-961.5 232.5,-955.5 232.5,-955.5 232.5,-888.5 232.5,-888.5 232.5,-882.5 238.5,-876.5 244.5,-876.5"/>
<text text-anchor="middle" x="298" y="-952.3" font-family="Times,serif" font-size="14.00">Family</text>
<polyline fill="none" stroke="black" points="232.5,-944.5 363.5,-944.5 "/>
<text text-anchor="start" x="240.5" y="-929.3" font-family="Times,serif" font-size="14.00">id :integer</text>
<text text-anchor="start" x="240.5" y="-914.3" font-family="Times,serif" font-size="14.00">name :string</text>
<text text-anchor="start" x="240.5" y="-899.3" font-family="Times,serif" font-size="14.00">created_at :datetime</text>
<text text-anchor="start" x="240.5" y="-884.3" font-family="Times,serif" font-size="14.00">updated_at :datetime</text>
</g>
<!-- Family&#45;&gt;User -->
<g id="edge11" class="edge"><title>Family&#45;&gt;User</title>
<path fill="none" stroke="#525656" d="M298,-868.277C298,-862.309 298,-856.039 298,-849.582"/>
<ellipse fill="none" stroke="#525656" cx="298" cy="-872.421" rx="4" ry="4"/>
<polygon fill="#525656" stroke="#525656" points="298,-849.296 302.5,-839.296 298,-844.296 298,-839.296 298,-839.296 298,-839.296 298,-844.296 293.5,-839.296 298,-849.296 298,-849.296"/>
</g>
<!-- Family&#45;&gt;Post -->
<g id="edge12" class="edge"><title>Family&#45;&gt;Post</title>
<path fill="none" stroke="#c71fe5" d="M225.473,-874.599C208.377,-862.066 193.721,-849.391 189,-840 144.277,-751.046 157.95,-634.818 176.441,-555.064"/>
<ellipse fill="none" stroke="#c71fe5" cx="229.146" cy="-877.239" rx="4.00002" ry="4.00002"/>
<polygon fill="#c71fe5" stroke="#c71fe5" points="176.513,-554.762 183.213,-546.081 177.674,-549.899 178.836,-545.036 178.836,-545.036 178.836,-545.036 177.674,-549.899 174.459,-543.991 176.513,-554.762 176.513,-554.762"/>
</g>
<!-- Family&#45;&gt;Calendar -->
<g id="edge13" class="edge"><title>Family&#45;&gt;Calendar</title>
<path fill="none" stroke="#b97b48" d="M370.854,-896.181C397,-883.519 423.961,-865.309 440,-840 536.922,-687.062 520.321,-464.005 501.555,-343.616"/>
<ellipse fill="none" stroke="#b97b48" cx="367.136" cy="-897.916" rx="4.00002" ry="4.00002"/>
<polygon fill="#b97b48" stroke="#b97b48" points="501.55,-343.584 504.414,-332.998 500.76,-338.647 499.97,-333.709 499.97,-333.709 499.97,-333.709 500.76,-338.647 495.527,-334.421 501.55,-343.584 501.55,-343.584"/>
</g>
<!-- Family&#45;&gt;Todo -->
<g id="edge14" class="edge"><title>Family&#45;&gt;Todo</title>
<path fill="none" stroke="#ac2823" d="M370.162,-882.327C384.986,-870.791 398.614,-856.68 407,-840 486.441,-681.993 425.055,-470.301 377.604,-350.944"/>
<ellipse fill="none" stroke="#ac2823" cx="366.954" cy="-884.721" rx="4.00002" ry="4.00002"/>
<polygon fill="#ac2823" stroke="#ac2823" points="377.517,-350.729 377.957,-339.772 375.65,-346.091 373.782,-341.453 373.782,-341.453 373.782,-341.453 375.65,-346.091 369.608,-343.133 377.517,-350.729 377.517,-350.729"/>
</g>
<!-- Family&#45;&gt;Checkin -->
<g id="edge15" class="edge"><title>Family&#45;&gt;Checkin</title>
<path fill="none" stroke="#047459" d="M225.144,-877.793C224.09,-877.19 223.041,-876.592 222,-876 192.953,-859.486 175.901,-866.84 156,-840 45.3598,-690.781 69.7519,-456.779 92.4029,-336.34"/>
<ellipse fill="none" stroke="#047459" cx="228.705" cy="-879.839" rx="4.00002" ry="4.00002"/>
<polygon fill="#047459" stroke="#047459" points="92.4152,-336.276 98.7249,-327.307 93.3606,-331.366 94.306,-326.457 94.306,-326.457 94.306,-326.457 93.3606,-331.366 89.8872,-325.606 92.4152,-336.276 92.4152,-336.276"/>
</g>
</g>
</svg>
