<?xml version="1.0" encoding="UTF-8" standalone="no"?>
<!DOCTYPE svg PUBLIC "-//W3C//DTD SVG 1.1//EN"
 "http://www.w3.org/Graphics/SVG/1.1/DTD/svg11.dtd">
<!-- Generated by graphviz version 2.30.0 (20130412.1044)
 -->
<!-- Title: models_diagram Pages: 1 -->
<svg width="464pt" height="374pt"
 viewBox="0.00 0.00 464.00 374.00" xmlns="http://www.w3.org/2000/svg" xmlns:xlink="http://www.w3.org/1999/xlink">
<g id="graph0" class="graph" transform="scale(1 1) rotate(0) translate(4 370)">
<title>models_diagram</title>
<polygon fill="white" stroke="white" points="-4,5 -4,-370 461,-370 461,5 -4,5"/>
<!-- _diagram_info -->
<g id="node1" class="node"><title>_diagram_info</title>
<text text-anchor="start" x="8" y="-351.6" font-family="Times,serif" font-size="13.00">Models diagram</text>
<text text-anchor="start" x="8" y="-337.6" font-family="Times,serif" font-size="13.00">Date: Apr 15 2013 &#45; 13:19</text>
<text text-anchor="start" x="8" y="-323.6" font-family="Times,serif" font-size="13.00">Migration version: 20130414105154</text>
<text text-anchor="start" x="8" y="-309.6" font-family="Times,serif" font-size="13.00">Generated by RailRoady 1.1.0</text>
<text text-anchor="start" x="8" y="-295.6" font-family="Times,serif" font-size="13.00">http://railroady.prestonlee.com</text>
</g>
<!-- User -->
<g id="node2" class="node"><title>User</title>
<ellipse fill="none" stroke="black" cx="268" cy="-234" rx="26.949" ry="18"/>
<text text-anchor="middle" x="268" y="-230.3" font-family="Times,serif" font-size="14.00">User</text>
</g>
<!-- Post -->
<g id="node6" class="node"><title>Post</title>
<ellipse fill="none" stroke="black" cx="213" cy="-162" rx="27" ry="18"/>
<text text-anchor="middle" x="213" y="-158.3" font-family="Times,serif" font-size="14.00">Post</text>
</g>
<!-- User&#45;&gt;Post -->
<g id="edge1" class="edge"><title>User&#45;&gt;Post</title>
<path fill="none" stroke="#350051" d="M251.036,-211.409C244.756,-203.417 237.613,-194.325 231.225,-186.196"/>
<ellipse fill="none" stroke="#350051" cx="253.595" cy="-214.666" rx="4.00002" ry="4.00002"/>
<polygon fill="#350051" stroke="#350051" points="231.089,-186.023 228.449,-175.379 228,-182.091 224.911,-178.159 224.911,-178.159 224.911,-178.159 228,-182.091 221.372,-180.94 231.089,-186.023 231.089,-186.023"/>
</g>
<!-- Calendar -->
<g id="node5" class="node"><title>Calendar</title>
<ellipse fill="none" stroke="black" cx="414" cy="-90" rx="42.3701" ry="18"/>
<text text-anchor="middle" x="414" y="-86.3" font-family="Times,serif" font-size="14.00">Calendar</text>
</g>
<!-- User&#45;&gt;Calendar -->
<g id="edge2" class="edge"><title>User&#45;&gt;Calendar</title>
<path fill="none" stroke="#285ab5" d="M290.181,-211.426C317.267,-185.082 362.878,-140.721 390.535,-113.823"/>
<polygon fill="#285ab5" stroke="#285ab5" points="289.971,-211.631 279.665,-215.377 286.387,-215.117 282.803,-218.603 282.803,-218.603 282.803,-218.603 286.387,-215.117 285.94,-221.829 289.971,-211.631 289.971,-211.631"/>
<polygon fill="#285ab5" stroke="#285ab5" points="390.66,-113.701 400.966,-109.954 394.244,-110.214 397.829,-106.728 397.829,-106.728 397.829,-106.728 394.244,-110.214 394.691,-103.502 390.66,-113.701 390.66,-113.701"/>
</g>
<!-- Todo -->
<g id="node3" class="node"><title>Todo</title>
<ellipse fill="none" stroke="black" cx="325" cy="-90" rx="29.3722" ry="18"/>
<text text-anchor="middle" x="325" y="-86.3" font-family="Times,serif" font-size="14.00">Todo</text>
</g>
<!-- User&#45;&gt;Todo -->
<g id="edge3" class="edge"><title>User&#45;&gt;Todo</title>
<path fill="none" stroke="#75f1ce" d="M278.439,-206.994C288.662,-181.526 304.158,-142.921 314.427,-117.34"/>
<polygon fill="#75f1ce" stroke="#75f1ce" points="278.375,-207.153 270.474,-214.757 276.513,-211.793 274.65,-216.433 274.65,-216.433 274.65,-216.433 276.513,-211.793 278.826,-218.109 278.375,-207.153 278.375,-207.153"/>
<polygon fill="#75f1ce" stroke="#75f1ce" points="314.49,-117.182 322.392,-109.578 316.353,-112.542 318.215,-107.902 318.215,-107.902 318.215,-107.902 316.353,-112.542 314.039,-106.225 314.49,-117.182 314.49,-117.182"/>
</g>
<!-- Checkin -->
<g id="node4" class="node"><title>Checkin</title>
<ellipse fill="none" stroke="black" cx="158" cy="-90" rx="39.9464" ry="18"/>
<text text-anchor="middle" x="158" y="-86.3" font-family="Times,serif" font-size="14.00">Checkin</text>
</g>
<!-- User&#45;&gt;Checkin -->
<g id="edge4" class="edge"><title>User&#45;&gt;Checkin</title>
<path fill="none" stroke="#5eab87" d="M234.75,-221.565C215.032,-213.095 191.194,-199.596 177,-180 164.001,-162.054 159.542,-137.058 158.168,-118.123"/>
<polygon fill="#5eab87" stroke="#5eab87" points="234.769,-221.572 242.351,-229.494 239.404,-223.448 244.039,-225.323 244.039,-225.323 244.039,-225.323 239.404,-223.448 245.727,-221.151 234.769,-221.572 234.769,-221.572"/>
<polygon fill="#5eab87" stroke="#5eab87" points="158.164,-118.032 162.175,-107.826 157.922,-113.037 157.68,-108.043 157.68,-108.043 157.68,-108.043 157.922,-113.037 153.186,-108.261 158.164,-118.032 158.164,-118.032"/>
</g>
<!-- Comment -->
<g id="node7" class="node"><title>Comment</title>
<ellipse fill="none" stroke="black" cx="268" cy="-18" rx="46.2191" ry="18"/>
<text text-anchor="middle" x="268" y="-14.3" font-family="Times,serif" font-size="14.00">Comment</text>
</g>
<!-- User&#45;&gt;Comment -->
<g id="edge5" class="edge"><title>User&#45;&gt;Comment</title>
<path fill="none" stroke="#097957" d="M268,-205.712C268,-164.65 268,-87.4166 268,-46.3297"/>
<polygon fill="#097957" stroke="#097957" points="268,-205.849 263.5,-215.849 268,-210.849 268,-215.849 268,-215.849 268,-215.849 268,-210.849 272.5,-215.849 268,-205.849 268,-205.849"/>
<polygon fill="#097957" stroke="#097957" points="268,-46.2325 272.5,-36.2324 268,-41.2325 268,-36.2325 268,-36.2325 268,-36.2325 268,-41.2325 263.5,-36.2325 268,-46.2325 268,-46.2325"/>
</g>
<!-- Calendar&#45;&gt;Comment -->
<g id="edge6" class="edge"><title>Calendar&#45;&gt;Comment</title>
<path fill="none" stroke="#ca3f03" d="M379.606,-72.5099C357.196,-61.7654 327.972,-47.7535 305.049,-36.7634"/>
<ellipse fill="none" stroke="#ca3f03" cx="383.274" cy="-74.2682" rx="4.00002" ry="4.00002"/>
<polygon fill="#ca3f03" stroke="#ca3f03" points="304.985,-36.7327 297.914,-28.3516 300.477,-34.571 295.968,-32.4094 295.968,-32.4094 295.968,-32.4094 300.477,-34.571 294.023,-36.4671 304.985,-36.7327 304.985,-36.7327"/>
</g>
<!-- Post&#45;&gt;Calendar -->
<g id="edge7" class="edge"><title>Post&#45;&gt;Calendar</title>
<path fill="none" stroke="#e40847" d="M244.072,-150.179C279.18,-137.952 336.396,-118.026 374.61,-104.718"/>
<ellipse fill="none" stroke="#e40847" cx="240.228" cy="-151.518" rx="4.00001" ry="4.00001"/>
<ellipse fill="#e40847" stroke="#e40847" cx="378.684" cy="-103.299" rx="4.00001" ry="4.00001"/>
</g>
<!-- Post&#45;&gt;Todo -->
<g id="edge8" class="edge"><title>Post&#45;&gt;Todo</title>
<path fill="none" stroke="#52404c" d="M238.803,-144.873C256.631,-133.731 280.283,-118.948 298.301,-107.687"/>
<ellipse fill="none" stroke="#52404c" cx="235.391" cy="-147.005" rx="4.00002" ry="4.00002"/>
<ellipse fill="#52404c" stroke="#52404c" cx="301.76" cy="-105.525" rx="4.00002" ry="4.00002"/>
</g>
<!-- Post&#45;&gt;Checkin -->
<g id="edge9" class="edge"><title>Post&#45;&gt;Checkin</title>
<path fill="none" stroke="#9403a6" d="M195.947,-139.296C189.57,-131.18 182.313,-121.944 175.865,-113.738"/>
<ellipse fill="none" stroke="#9403a6" cx="198.595" cy="-142.666" rx="4.00002" ry="4.00002"/>
<ellipse fill="#9403a6" stroke="#9403a6" cx="173.148" cy="-110.279" rx="4.00002" ry="4.00002"/>
</g>
<!-- Post&#45;&gt;Comment -->
<g id="edge10" class="edge"><title>Post&#45;&gt;Comment</title>
<path fill="none" stroke="#b88d55" d="M222.35,-136.859C232.166,-111.516 247.557,-71.7797 257.712,-45.5624"/>
<ellipse fill="none" stroke="#b88d55" cx="220.862" cy="-140.703" rx="4.00001" ry="4.00001"/>
<polygon fill="#b88d55" stroke="#b88d55" points="257.842,-45.2267 265.65,-37.5271 259.648,-40.5642 261.454,-35.9017 261.454,-35.9017 261.454,-35.9017 259.648,-40.5642 257.257,-34.2764 257.842,-45.2267 257.842,-45.2267"/>
</g>
<!-- Family -->
<g id="node8" class="node"><title>Family</title>
<ellipse fill="none" stroke="black" cx="268" cy="-327" rx="36.096" ry="18"/>
<text text-anchor="middle" x="268" y="-323.3" font-family="Times,serif" font-size="14.00">Family</text>
</g>
<!-- Family&#45;&gt;User -->
<g id="edge11" class="edge"><title>Family&#45;&gt;User</title>
<path fill="none" stroke="#e3f6d2" d="M268,-300.729C268,-288.725 268,-274.362 268,-262.129"/>
<ellipse fill="none" stroke="#e3f6d2" cx="268" cy="-304.884" rx="4" ry="4"/>
<polygon fill="#e3f6d2" stroke="#e3f6d2" points="268,-262.04 272.5,-252.04 268,-257.04 268,-252.04 268,-252.04 268,-252.04 268,-257.04 263.5,-252.04 268,-262.04 268,-262.04"/>
</g>
<!-- Family&#45;&gt;Post -->
<g id="edge12" class="edge"><title>Family&#45;&gt;Post</title>
<path fill="none" stroke="#7d25cc" d="M254.508,-302.051C246.988,-287.863 237.964,-269.325 232,-252 225.025,-231.739 220.108,-207.967 217.026,-190.091"/>
<ellipse fill="none" stroke="#7d25cc" cx="256.603" cy="-305.931" rx="4.00002" ry="4.00002"/>
<polygon fill="#7d25cc" stroke="#7d25cc" points="217,-189.93 219.822,-179.334 216.191,-184.996 215.382,-180.062 215.382,-180.062 215.382,-180.062 216.191,-184.996 210.941,-180.79 217,-189.93 217,-189.93"/>
</g>
<!-- Family&#45;&gt;Calendar -->
<g id="edge13" class="edge"><title>Family&#45;&gt;Calendar</title>
<path fill="none" stroke="#38b510" d="M285.617,-303.248C296.514,-288.843 310.557,-269.666 322,-252 351.977,-205.72 383.025,-149.297 400.291,-117.021"/>
<ellipse fill="none" stroke="#38b510" cx="282.968" cy="-306.726" rx="4.00002" ry="4.00002"/>
<polygon fill="#38b510" stroke="#38b510" points="400.491,-116.645 409.163,-109.932 402.841,-112.231 405.191,-107.817 405.191,-107.817 405.191,-107.817 402.841,-112.231 401.218,-105.703 400.491,-116.645 400.491,-116.645"/>
</g>
<!-- Family&#45;&gt;Todo -->
<g id="edge14" class="edge"><title>Family&#45;&gt;Todo</title>
<path fill="none" stroke="#7ec3ec" d="M282.017,-302.22C289.714,-288.089 298.739,-269.551 304,-252 317.671,-206.393 322.444,-150.881 324.109,-118.389"/>
<ellipse fill="none" stroke="#7ec3ec" cx="279.858" cy="-306.09" rx="4.00002" ry="4.00002"/>
<polygon fill="#7ec3ec" stroke="#7ec3ec" points="324.113,-118.289 329.058,-108.502 324.338,-113.294 324.563,-108.299 324.563,-108.299 324.563,-108.299 324.338,-113.294 320.068,-108.097 324.113,-118.289 324.113,-118.289"/>
</g>
<!-- Family&#45;&gt;Checkin -->
<g id="edge15" class="edge"><title>Family&#45;&gt;Checkin</title>
<path fill="none" stroke="#eb618e" d="M245.358,-305.045C218.818,-278.799 176.27,-231.041 159,-180 152.283,-160.149 152.402,-136.352 154,-118.362"/>
<ellipse fill="none" stroke="#eb618e" cx="248.543" cy="-308.144" rx="4.00002" ry="4.00002"/>
<polygon fill="#eb618e" stroke="#eb618e" points="154.018,-118.198 159.577,-108.746 154.561,-113.227 155.104,-108.257 155.104,-108.257 155.104,-108.257 154.561,-113.227 150.63,-107.768 154.018,-118.198 154.018,-118.198"/>
</g>
</g>
</svg>
