<?xml version="1.0" encoding="UTF-8" standalone="no"?>
<!DOCTYPE svg PUBLIC "-//W3C//DTD SVG 1.1//EN"
 "http://www.w3.org/Graphics/SVG/1.1/DTD/svg11.dtd">
<!-- Generated by graphviz version 2.30.0 (20130412.1044)
 -->
<!-- Title: models_diagram Pages: 1 -->
<svg width="442pt" height="802pt"
 viewBox="0.00 0.00 441.65 802.00" xmlns="http://www.w3.org/2000/svg" xmlns:xlink="http://www.w3.org/1999/xlink">
<g id="graph0" class="graph" transform="scale(1 1) rotate(0) translate(4 798)">
<title>models_diagram</title>
<polygon fill="white" stroke="white" points="-4,5 -4,-798 438.646,-798 438.646,5 -4,5"/>
<!-- _diagram_info -->
<g id="node1" class="node"><title>_diagram_info</title>
<text text-anchor="start" x="19.6457" y="-772.6" font-family="Times,serif" font-size="13.00">Models diagram</text>
<text text-anchor="start" x="19.6457" y="-758.6" font-family="Times,serif" font-size="13.00">Date: Apr 12 2013 &#45; 13:59</text>
<text text-anchor="start" x="19.6457" y="-744.6" font-family="Times,serif" font-size="13.00">Migration version: 20130412104040</text>
<text text-anchor="start" x="19.6457" y="-730.6" font-family="Times,serif" font-size="13.00">Generated by RailRoady 1.1.0</text>
<text text-anchor="start" x="19.6457" y="-716.6" font-family="Times,serif" font-size="13.00">http://railroady.prestonlee.com</text>
</g>
<!-- User -->
<g id="node2" class="node"><title>User</title>
<path fill="none" stroke="black" d="M93.6457,-409C93.6457,-409 269.646,-409 269.646,-409 275.646,-409 281.646,-415 281.646,-421 281.646,-421 281.646,-653 281.646,-653 281.646,-659 275.646,-665 269.646,-665 269.646,-665 93.6457,-665 93.6457,-665 87.6457,-665 81.6457,-659 81.6457,-653 81.6457,-653 81.6457,-421 81.6457,-421 81.6457,-415 87.6457,-409 93.6457,-409"/>
<text text-anchor="middle" x="181.646" y="-649.8" font-family="Times,serif" font-size="14.00">User</text>
<polyline fill="none" stroke="black" points="81.6457,-642 281.646,-642 "/>
<text text-anchor="start" x="89.6457" y="-626.8" font-family="Times,serif" font-size="14.00">id :integer</text>
<text text-anchor="start" x="89.6457" y="-611.8" font-family="Times,serif" font-size="14.00">email :string</text>
<text text-anchor="start" x="89.6457" y="-596.8" font-family="Times,serif" font-size="14.00">encrypted_password :string</text>
<text text-anchor="start" x="89.6457" y="-581.8" font-family="Times,serif" font-size="14.00">reset_password_token :string</text>
<text text-anchor="start" x="89.6457" y="-566.8" font-family="Times,serif" font-size="14.00">reset_password_sent_at :datetime</text>
<text text-anchor="start" x="89.6457" y="-551.8" font-family="Times,serif" font-size="14.00">remember_created_at :datetime</text>
<text text-anchor="start" x="89.6457" y="-536.8" font-family="Times,serif" font-size="14.00">sign_in_count :integer</text>
<text text-anchor="start" x="89.6457" y="-521.8" font-family="Times,serif" font-size="14.00">current_sign_in_at :datetime</text>
<text text-anchor="start" x="89.6457" y="-506.8" font-family="Times,serif" font-size="14.00">last_sign_in_at :datetime</text>
<text text-anchor="start" x="89.6457" y="-491.8" font-family="Times,serif" font-size="14.00">current_sign_in_ip :string</text>
<text text-anchor="start" x="89.6457" y="-476.8" font-family="Times,serif" font-size="14.00">last_sign_in_ip :string</text>
<text text-anchor="start" x="89.6457" y="-461.8" font-family="Times,serif" font-size="14.00">created_at :datetime</text>
<text text-anchor="start" x="89.6457" y="-446.8" font-family="Times,serif" font-size="14.00">updated_at :datetime</text>
<text text-anchor="start" x="89.6457" y="-431.8" font-family="Times,serif" font-size="14.00">family_id :integer</text>
<text text-anchor="start" x="89.6457" y="-416.8" font-family="Times,serif" font-size="14.00">name :string</text>
</g>
<!-- Post -->
<g id="node6" class="node"><title>Post</title>
<path fill="none" stroke="black" d="M166.146,-205C166.146,-205 273.146,-205 273.146,-205 279.146,-205 285.146,-211 285.146,-217 285.146,-217 285.146,-359 285.146,-359 285.146,-365 279.146,-371 273.146,-371 273.146,-371 166.146,-371 166.146,-371 160.146,-371 154.146,-365 154.146,-359 154.146,-359 154.146,-217 154.146,-217 154.146,-211 160.146,-205 166.146,-205"/>
<text text-anchor="middle" x="219.646" y="-355.8" font-family="Times,serif" font-size="14.00">Post</text>
<polyline fill="none" stroke="black" points="154.146,-348 285.146,-348 "/>
<text text-anchor="start" x="162.146" y="-332.8" font-family="Times,serif" font-size="14.00">id :integer</text>
<text text-anchor="start" x="162.146" y="-317.8" font-family="Times,serif" font-size="14.00">text :text</text>
<text text-anchor="start" x="162.146" y="-302.8" font-family="Times,serif" font-size="14.00">user_id :integer</text>
<text text-anchor="start" x="162.146" y="-287.8" font-family="Times,serif" font-size="14.00">calendar_id :integer</text>
<text text-anchor="start" x="162.146" y="-272.8" font-family="Times,serif" font-size="14.00">todo_id :integer</text>
<text text-anchor="start" x="162.146" y="-257.8" font-family="Times,serif" font-size="14.00">created_at :datetime</text>
<text text-anchor="start" x="162.146" y="-242.8" font-family="Times,serif" font-size="14.00">updated_at :datetime</text>
<text text-anchor="start" x="162.146" y="-227.8" font-family="Times,serif" font-size="14.00">family_id :integer</text>
<text text-anchor="start" x="162.146" y="-212.8" font-family="Times,serif" font-size="14.00">checkin_id :integer</text>
</g>
<!-- User&#45;&gt;Post -->
<g id="edge1" class="edge"><title>User&#45;&gt;Post</title>
<path fill="none" stroke="#da38be" d="M202.443,-400.816C203.457,-394.229 204.463,-387.687 205.451,-381.266"/>
<ellipse fill="none" stroke="#da38be" cx="201.811" cy="-404.929" rx="4.00001" ry="4.00001"/>
<polygon fill="#da38be" stroke="#da38be" points="205.466,-381.169 211.434,-371.969 206.226,-376.227 206.987,-371.285 206.987,-371.285 206.987,-371.285 206.226,-376.227 202.539,-370.601 205.466,-381.169 205.466,-381.169"/>
</g>
<!-- Calendar -->
<g id="node5" class="node"><title>Calendar</title>
<path fill="none" stroke="black" d="M315.146,-8.5C315.146,-8.5 422.146,-8.5 422.146,-8.5 428.146,-8.5 434.146,-14.5 434.146,-20.5 434.146,-20.5 434.146,-147.5 434.146,-147.5 434.146,-153.5 428.146,-159.5 422.146,-159.5 422.146,-159.5 315.146,-159.5 315.146,-159.5 309.146,-159.5 303.146,-153.5 303.146,-147.5 303.146,-147.5 303.146,-20.5 303.146,-20.5 303.146,-14.5 309.146,-8.5 315.146,-8.5"/>
<text text-anchor="middle" x="368.646" y="-144.3" font-family="Times,serif" font-size="14.00">Calendar</text>
<polyline fill="none" stroke="black" points="303.146,-136.5 434.146,-136.5 "/>
<text text-anchor="start" x="311.146" y="-121.3" font-family="Times,serif" font-size="14.00">id :integer</text>
<text text-anchor="start" x="311.146" y="-106.3" font-family="Times,serif" font-size="14.00">date :datetime</text>
<text text-anchor="start" x="311.146" y="-91.3" font-family="Times,serif" font-size="14.00">text :text</text>
<text text-anchor="start" x="311.146" y="-76.3" font-family="Times,serif" font-size="14.00">user_id :integer</text>
<text text-anchor="start" x="311.146" y="-61.3" font-family="Times,serif" font-size="14.00">post_id :integer</text>
<text text-anchor="start" x="311.146" y="-46.3" font-family="Times,serif" font-size="14.00">created_at :datetime</text>
<text text-anchor="start" x="311.146" y="-31.3" font-family="Times,serif" font-size="14.00">updated_at :datetime</text>
<text text-anchor="start" x="311.146" y="-16.3" font-family="Times,serif" font-size="14.00">family_id :integer</text>
</g>
<!-- User&#45;&gt;Calendar -->
<g id="edge2" class="edge"><title>User&#45;&gt;Calendar</title>
<path fill="none" stroke="#543e86" d="M279.598,-399.82C284.681,-390.591 289.422,-381.273 293.646,-372 323.259,-306.984 342.801,-228.154 354.492,-169.574"/>
<polygon fill="#543e86" stroke="#543e86" points="279.538,-399.926 270.706,-406.426 277.082,-404.281 274.625,-408.637 274.625,-408.637 274.625,-408.637 277.082,-404.281 278.545,-410.847 279.538,-399.926 279.538,-399.926"/>
<polygon fill="#543e86" stroke="#543e86" points="354.52,-169.43 360.858,-160.482 355.481,-164.524 356.442,-159.617 356.442,-159.617 356.442,-159.617 355.481,-164.524 352.026,-158.752 354.52,-169.43 354.52,-169.43"/>
</g>
<!-- Todo -->
<g id="node3" class="node"><title>Todo</title>
<path fill="none" stroke="black" d="M17.1457,-1C17.1457,-1 124.146,-1 124.146,-1 130.146,-1 136.146,-7 136.146,-13 136.146,-13 136.146,-155 136.146,-155 136.146,-161 130.146,-167 124.146,-167 124.146,-167 17.1457,-167 17.1457,-167 11.1457,-167 5.14573,-161 5.14573,-155 5.14573,-155 5.14573,-13 5.14573,-13 5.14573,-7 11.1457,-1 17.1457,-1"/>
<text text-anchor="middle" x="70.6457" y="-151.8" font-family="Times,serif" font-size="14.00">Todo</text>
<polyline fill="none" stroke="black" points="5.14573,-144 136.146,-144 "/>
<text text-anchor="start" x="13.1457" y="-128.8" font-family="Times,serif" font-size="14.00">id :integer</text>
<text text-anchor="start" x="13.1457" y="-113.8" font-family="Times,serif" font-size="14.00">type :string</text>
<text text-anchor="start" x="13.1457" y="-98.8" font-family="Times,serif" font-size="14.00">text :text</text>
<text text-anchor="start" x="13.1457" y="-83.8" font-family="Times,serif" font-size="14.00">user_id :integer</text>
<text text-anchor="start" x="13.1457" y="-68.8" font-family="Times,serif" font-size="14.00">post_id :integer</text>
<text text-anchor="start" x="13.1457" y="-53.8" font-family="Times,serif" font-size="14.00">status :string</text>
<text text-anchor="start" x="13.1457" y="-38.8" font-family="Times,serif" font-size="14.00">created_at :datetime</text>
<text text-anchor="start" x="13.1457" y="-23.8" font-family="Times,serif" font-size="14.00">updated_at :datetime</text>
<text text-anchor="start" x="13.1457" y="-8.8" font-family="Times,serif" font-size="14.00">family_id :integer</text>
</g>
<!-- User&#45;&gt;Todo -->
<g id="edge3" class="edge"><title>User&#45;&gt;Todo</title>
<path fill="none" stroke="#a37ae2" d="M137.025,-398.929C134.427,-389.845 131.941,-380.809 129.646,-372 112.827,-307.453 97.7584,-233.732 87.0597,-177.169"/>
<polygon fill="#a37ae2" stroke="#a37ae2" points="137.101,-399.192 135.563,-410.049 138.493,-403.994 139.885,-408.796 139.885,-408.796 139.885,-408.796 138.493,-403.994 144.207,-407.543 137.101,-399.192 137.101,-399.192"/>
<polygon fill="#a37ae2" stroke="#a37ae2" points="87.028,-177 89.6029,-166.34 86.1042,-172.086 85.1804,-167.172 85.1804,-167.172 85.1804,-167.172 86.1042,-172.086 80.7579,-168.003 87.028,-177 87.028,-177"/>
</g>
<!-- Checkin -->
<g id="node4" class="node"><title>Checkin</title>
<path fill="none" stroke="black" d="M166.146,-16C166.146,-16 273.146,-16 273.146,-16 279.146,-16 285.146,-22 285.146,-28 285.146,-28 285.146,-140 285.146,-140 285.146,-146 279.146,-152 273.146,-152 273.146,-152 166.146,-152 166.146,-152 160.146,-152 154.146,-146 154.146,-140 154.146,-140 154.146,-28 154.146,-28 154.146,-22 160.146,-16 166.146,-16"/>
<text text-anchor="middle" x="219.646" y="-136.8" font-family="Times,serif" font-size="14.00">Checkin</text>
<polyline fill="none" stroke="black" points="154.146,-129 285.146,-129 "/>
<text text-anchor="start" x="162.146" y="-113.8" font-family="Times,serif" font-size="14.00">id :integer</text>
<text text-anchor="start" x="162.146" y="-98.8" font-family="Times,serif" font-size="14.00">place :string</text>
<text text-anchor="start" x="162.146" y="-83.8" font-family="Times,serif" font-size="14.00">user_id :integer</text>
<text text-anchor="start" x="162.146" y="-68.8" font-family="Times,serif" font-size="14.00">family_id :integer</text>
<text text-anchor="start" x="162.146" y="-53.8" font-family="Times,serif" font-size="14.00">created_at :datetime</text>
<text text-anchor="start" x="162.146" y="-38.8" font-family="Times,serif" font-size="14.00">updated_at :datetime</text>
<text text-anchor="start" x="162.146" y="-23.8" font-family="Times,serif" font-size="14.00">post_id :integer</text>
</g>
<!-- User&#45;&gt;Checkin -->
<g id="edge4" class="edge"><title>User&#45;&gt;Checkin</title>
<path fill="none" stroke="#00add1" d="M142.661,-398.679C131.472,-338.071 126.581,-266.544 144.646,-204 148.87,-189.373 155.486,-174.813 163.076,-161.154"/>
<polygon fill="#00add1" stroke="#00add1" points="142.698,-398.876 140.166,-409.545 143.642,-403.786 144.585,-408.696 144.585,-408.696 144.585,-408.696 143.642,-403.786 149.004,-407.847 142.698,-398.876 142.698,-398.876"/>
<polygon fill="#00add1" stroke="#00add1" points="163.181,-160.973 172.085,-154.571 165.686,-156.645 168.19,-152.317 168.19,-152.317 168.19,-152.317 165.686,-156.645 164.295,-150.064 163.181,-160.973 163.181,-160.973"/>
</g>
<!-- Post&#45;&gt;Calendar -->
<g id="edge5" class="edge"><title>Post&#45;&gt;Calendar</title>
<path fill="none" stroke="#32c38d" d="M285.19,-198.142C293.046,-187.491 301.038,-176.657 308.807,-166.123"/>
<ellipse fill="none" stroke="#32c38d" cx="282.624" cy="-201.62" rx="4.00002" ry="4.00002"/>
<ellipse fill="#32c38d" stroke="#32c38d" cx="311.239" cy="-162.827" rx="4.00002" ry="4.00002"/>
</g>
<!-- Post&#45;&gt;Todo -->
<g id="edge6" class="edge"><title>Post&#45;&gt;Todo</title>
<path fill="none" stroke="#ee1853" d="M154.283,-198.387C148.287,-190.258 142.21,-182.02 136.212,-173.889"/>
<ellipse fill="none" stroke="#ee1853" cx="156.667" cy="-201.62" rx="4.00002" ry="4.00002"/>
<ellipse fill="#ee1853" stroke="#ee1853" cx="133.57" cy="-170.307" rx="4.00002" ry="4.00002"/>
</g>
<!-- Post&#45;&gt;Checkin -->
<g id="edge7" class="edge"><title>Post&#45;&gt;Checkin</title>
<path fill="none" stroke="#9eef5e" d="M219.646,-196.598C219.646,-184.487 219.646,-172.17 219.646,-160.354"/>
<ellipse fill="none" stroke="#9eef5e" cx="219.646" cy="-200.839" rx="4" ry="4"/>
<ellipse fill="#9eef5e" stroke="#9eef5e" cx="219.646" cy="-156.263" rx="4" ry="4"/>
</g>
<!-- Family -->
<g id="node7" class="node"><title>Family</title>
<path fill="none" stroke="black" d="M256.146,-702.5C256.146,-702.5 363.146,-702.5 363.146,-702.5 369.146,-702.5 375.146,-708.5 375.146,-714.5 375.146,-714.5 375.146,-781.5 375.146,-781.5 375.146,-787.5 369.146,-793.5 363.146,-793.5 363.146,-793.5 256.146,-793.5 256.146,-793.5 250.146,-793.5 244.146,-787.5 244.146,-781.5 244.146,-781.5 244.146,-714.5 244.146,-714.5 244.146,-708.5 250.146,-702.5 256.146,-702.5"/>
<text text-anchor="middle" x="309.646" y="-778.3" font-family="Times,serif" font-size="14.00">Family</text>
<polyline fill="none" stroke="black" points="244.146,-770.5 375.146,-770.5 "/>
<text text-anchor="start" x="252.146" y="-755.3" font-family="Times,serif" font-size="14.00">id :integer</text>
<text text-anchor="start" x="252.146" y="-740.3" font-family="Times,serif" font-size="14.00">name :string</text>
<text text-anchor="start" x="252.146" y="-725.3" font-family="Times,serif" font-size="14.00">created_at :datetime</text>
<text text-anchor="start" x="252.146" y="-710.3" font-family="Times,serif" font-size="14.00">updated_at :datetime</text>
</g>
<!-- Family&#45;&gt;User -->
<g id="edge8" class="edge"><title>Family&#45;&gt;User</title>
<path fill="none" stroke="#5f5a01" d="M278.036,-695.387C273.896,-688.627 269.51,-681.466 264.982,-674.072"/>
<ellipse fill="none" stroke="#5f5a01" cx="280.254" cy="-699.009" rx="4.00002" ry="4.00002"/>
<polygon fill="#5f5a01" stroke="#5f5a01" points="264.83,-673.824 263.444,-662.946 262.218,-669.56 259.607,-665.296 259.607,-665.296 259.607,-665.296 262.218,-669.56 255.769,-667.646 264.83,-673.824 264.83,-673.824"/>
</g>
<!-- Family&#45;&gt;Post -->
<g id="edge9" class="edge"><title>Family&#45;&gt;Post</title>
<path fill="none" stroke="#aacddc" d="M314.326,-694.481C318.663,-626.672 320.564,-505.767 290.646,-408 287.795,-398.683 284.069,-389.336 279.816,-380.201"/>
<ellipse fill="none" stroke="#aacddc" cx="314.056" cy="-698.492" rx="4" ry="4"/>
<polygon fill="#aacddc" stroke="#aacddc" points="279.783,-380.134 279.445,-369.174 277.592,-375.64 275.401,-371.146 275.401,-371.146 275.401,-371.146 277.592,-375.64 271.356,-373.118 279.783,-380.134 279.783,-380.134"/>
</g>
<!-- Family&#45;&gt;Calendar -->
<g id="edge10" class="edge"><title>Family&#45;&gt;Calendar</title>
<path fill="none" stroke="#a2bb18" d="M351.856,-695.44C357.512,-686.125 362.454,-676.136 365.646,-666 419.018,-496.489 400.348,-285.114 383.518,-169.785"/>
<ellipse fill="none" stroke="#a2bb18" cx="349.557" cy="-699.05" rx="4.00002" ry="4.00002"/>
<polygon fill="#a2bb18" stroke="#a2bb18" points="383.475,-169.499 386.452,-158.945 382.738,-164.554 382.001,-159.609 382.001,-159.609 382.001,-159.609 382.738,-164.554 377.55,-160.272 383.475,-169.499 383.475,-169.499"/>
</g>
<!-- Family&#45;&gt;Todo -->
<g id="edge11" class="edge"><title>Family&#45;&gt;Todo</title>
<path fill="none" stroke="#edc2ca" d="M236.538,-703.177C235.572,-702.774 234.608,-702.381 233.646,-702 165.48,-674.988 118.586,-723.146 72.6457,-666 -39.1915,-526.885 2.62868,-302.484 39.115,-177.174"/>
<ellipse fill="none" stroke="#edc2ca" cx="240.295" cy="-704.836" rx="4.00002" ry="4.00002"/>
<polygon fill="#edc2ca" stroke="#edc2ca" points="39.2247,-176.804 46.3792,-168.493 40.6445,-172.01 42.0644,-167.215 42.0644,-167.215 42.0644,-167.215 40.6445,-172.01 37.7496,-165.938 39.2247,-176.804 39.2247,-176.804"/>
</g>
<!-- Family&#45;&gt;Checkin -->
<g id="edge12" class="edge"><title>Family&#45;&gt;Checkin</title>
<path fill="none" stroke="#dad168" d="M318.341,-694.356C332.538,-595.121 353.504,-374.999 293.646,-204 288.569,-189.496 281.492,-174.905 273.712,-161.153"/>
<ellipse fill="none" stroke="#dad168" cx="317.74" cy="-698.477" rx="4.00001" ry="4.00001"/>
<polygon fill="#dad168" stroke="#dad168" points="273.553,-160.881 272.397,-149.977 271.032,-156.564 268.511,-152.246 268.511,-152.246 268.511,-152.246 271.032,-156.564 264.625,-154.515 273.553,-160.881 273.553,-160.881"/>
</g>
</g>
</svg>
